<mxfile host="app.diagrams.net" modified="2024-07-02T06:14:51.928Z" agent="Mozilla/5.0 (Windows NT 10.0; Win64; x64) AppleWebKit/537.36 (KHTML, like Gecko) Chrome/125.0.0.0 Safari/537.36" etag="Dfqw3RXP134X2JEkkfJj" version="24.6.4" type="google">
  <diagram name="‫עמוד-1‬" id="ZeaiFz-dSpP0ARGtSDzb">
    <mxGraphModel dx="880" dy="468" grid="1" gridSize="10" guides="1" tooltips="1" connect="1" arrows="1" fold="1" page="1" pageScale="1" pageWidth="827" pageHeight="1169" math="0" shadow="0">
      <root>
        <mxCell id="0" />
        <mxCell id="1" parent="0" />
        <mxCell id="nvKz9CpnVOOsvy4gnu52-1" value="start" style="rounded=1;whiteSpace=wrap;html=1;" vertex="1" parent="1">
          <mxGeometry x="120" y="50" width="120" height="40" as="geometry" />
        </mxCell>
        <mxCell id="nvKz9CpnVOOsvy4gnu52-2" value="end" style="rounded=1;whiteSpace=wrap;html=1;" vertex="1" parent="1">
          <mxGeometry x="117" y="420" width="123" height="40" as="geometry" />
        </mxCell>
        <mxCell id="nvKz9CpnVOOsvy4gnu52-46" value="" style="edgeStyle=orthogonalEdgeStyle;rounded=0;orthogonalLoop=1;jettySize=auto;html=1;" edge="1" parent="1" source="nvKz9CpnVOOsvy4gnu52-7" target="nvKz9CpnVOOsvy4gnu52-2">
          <mxGeometry relative="1" as="geometry">
            <Array as="points">
              <mxPoint x="179" y="390" />
              <mxPoint x="179" y="390" />
            </Array>
          </mxGeometry>
        </mxCell>
        <mxCell id="nvKz9CpnVOOsvy4gnu52-7" value="x" style="shape=document;whiteSpace=wrap;html=1;boundedLbl=1;" vertex="1" parent="1">
          <mxGeometry x="120" y="340" width="120" height="60" as="geometry" />
        </mxCell>
        <mxCell id="nvKz9CpnVOOsvy4gnu52-14" value="Exercise 2." style="text;html=1;align=center;verticalAlign=middle;whiteSpace=wrap;rounded=0;" vertex="1" parent="1">
          <mxGeometry x="129" y="10" width="106" height="30" as="geometry" />
        </mxCell>
        <mxCell id="nvKz9CpnVOOsvy4gnu52-64" style="edgeStyle=orthogonalEdgeStyle;rounded=0;orthogonalLoop=1;jettySize=auto;html=1;exitX=1;exitY=0.5;exitDx=0;exitDy=0;entryX=1;entryY=0.75;entryDx=0;entryDy=0;" edge="1" parent="1" source="nvKz9CpnVOOsvy4gnu52-26" target="nvKz9CpnVOOsvy4gnu52-55">
          <mxGeometry relative="1" as="geometry" />
        </mxCell>
        <mxCell id="nvKz9CpnVOOsvy4gnu52-26" value="start" style="rounded=1;whiteSpace=wrap;html=1;" vertex="1" parent="1">
          <mxGeometry x="400" y="50" width="120" height="40" as="geometry" />
        </mxCell>
        <mxCell id="nvKz9CpnVOOsvy4gnu52-27" value="Exercise 3." style="text;html=1;align=center;verticalAlign=middle;whiteSpace=wrap;rounded=0;" vertex="1" parent="1">
          <mxGeometry x="390" y="10" width="123" height="30" as="geometry" />
        </mxCell>
        <mxCell id="nvKz9CpnVOOsvy4gnu52-28" value="end" style="rounded=1;whiteSpace=wrap;html=1;" vertex="1" parent="1">
          <mxGeometry x="400" y="420" width="120" height="40" as="geometry" />
        </mxCell>
        <mxCell id="nvKz9CpnVOOsvy4gnu52-39" style="edgeStyle=orthogonalEdgeStyle;rounded=0;orthogonalLoop=1;jettySize=auto;html=1;exitX=0.5;exitY=1;exitDx=0;exitDy=0;exitPerimeter=0;entryX=0.5;entryY=0;entryDx=0;entryDy=0;" edge="1" parent="1" source="nvKz9CpnVOOsvy4gnu52-32" target="nvKz9CpnVOOsvy4gnu52-36">
          <mxGeometry relative="1" as="geometry" />
        </mxCell>
        <mxCell id="nvKz9CpnVOOsvy4gnu52-32" value="x (int) = ?" style="shape=card;whiteSpace=wrap;html=1;" vertex="1" parent="1">
          <mxGeometry x="120" y="110" width="120" height="50" as="geometry" />
        </mxCell>
        <mxCell id="nvKz9CpnVOOsvy4gnu52-45" value="" style="edgeStyle=orthogonalEdgeStyle;rounded=0;orthogonalLoop=1;jettySize=auto;html=1;" edge="1" parent="1" source="nvKz9CpnVOOsvy4gnu52-35" target="nvKz9CpnVOOsvy4gnu52-7">
          <mxGeometry relative="1" as="geometry" />
        </mxCell>
        <mxCell id="nvKz9CpnVOOsvy4gnu52-35" value="x" style="shape=document;whiteSpace=wrap;html=1;boundedLbl=1;" vertex="1" parent="1">
          <mxGeometry x="120" y="260" width="120" height="60" as="geometry" />
        </mxCell>
        <mxCell id="nvKz9CpnVOOsvy4gnu52-50" value="" style="edgeStyle=orthogonalEdgeStyle;rounded=0;orthogonalLoop=1;jettySize=auto;html=1;" edge="1" parent="1" source="nvKz9CpnVOOsvy4gnu52-36" target="nvKz9CpnVOOsvy4gnu52-35">
          <mxGeometry relative="1" as="geometry" />
        </mxCell>
        <mxCell id="nvKz9CpnVOOsvy4gnu52-36" value="x" style="shape=document;whiteSpace=wrap;html=1;boundedLbl=1;size=0.4;" vertex="1" parent="1">
          <mxGeometry x="120" y="180" width="120" height="60" as="geometry" />
        </mxCell>
        <mxCell id="nvKz9CpnVOOsvy4gnu52-37" style="edgeStyle=orthogonalEdgeStyle;rounded=0;orthogonalLoop=1;jettySize=auto;html=1;exitX=0.5;exitY=1;exitDx=0;exitDy=0;entryX=0.5;entryY=0;entryDx=0;entryDy=0;entryPerimeter=0;" edge="1" parent="1" source="nvKz9CpnVOOsvy4gnu52-1" target="nvKz9CpnVOOsvy4gnu52-32">
          <mxGeometry relative="1" as="geometry" />
        </mxCell>
        <mxCell id="nvKz9CpnVOOsvy4gnu52-74" value="" style="edgeStyle=orthogonalEdgeStyle;rounded=0;orthogonalLoop=1;jettySize=auto;html=1;" edge="1" parent="1" source="nvKz9CpnVOOsvy4gnu52-54" target="nvKz9CpnVOOsvy4gnu52-28">
          <mxGeometry relative="1" as="geometry" />
        </mxCell>
        <mxCell id="nvKz9CpnVOOsvy4gnu52-54" value="result" style="shape=document;whiteSpace=wrap;html=1;boundedLbl=1;" vertex="1" parent="1">
          <mxGeometry x="400" y="350" width="120" height="50" as="geometry" />
        </mxCell>
        <mxCell id="nvKz9CpnVOOsvy4gnu52-65" style="edgeStyle=orthogonalEdgeStyle;rounded=0;orthogonalLoop=1;jettySize=auto;html=1;exitX=0;exitY=0.5;exitDx=0;exitDy=0;entryX=0;entryY=0.75;entryDx=0;entryDy=0;" edge="1" parent="1" source="nvKz9CpnVOOsvy4gnu52-55" target="nvKz9CpnVOOsvy4gnu52-56">
          <mxGeometry relative="1" as="geometry" />
        </mxCell>
        <mxCell id="nvKz9CpnVOOsvy4gnu52-55" value="x (int) = 777" style="rounded=0;whiteSpace=wrap;html=1;" vertex="1" parent="1">
          <mxGeometry x="400" y="110" width="120" height="40" as="geometry" />
        </mxCell>
        <mxCell id="nvKz9CpnVOOsvy4gnu52-66" style="edgeStyle=orthogonalEdgeStyle;rounded=0;orthogonalLoop=1;jettySize=auto;html=1;exitX=1;exitY=0.5;exitDx=0;exitDy=0;entryX=1;entryY=0.5;entryDx=0;entryDy=0;" edge="1" parent="1" source="nvKz9CpnVOOsvy4gnu52-56" target="nvKz9CpnVOOsvy4gnu52-57">
          <mxGeometry relative="1" as="geometry" />
        </mxCell>
        <mxCell id="nvKz9CpnVOOsvy4gnu52-56" value="y (int) = 888" style="rounded=0;whiteSpace=wrap;html=1;" vertex="1" parent="1">
          <mxGeometry x="400" y="170" width="120" height="40" as="geometry" />
        </mxCell>
        <mxCell id="nvKz9CpnVOOsvy4gnu52-70" style="edgeStyle=orthogonalEdgeStyle;rounded=0;orthogonalLoop=1;jettySize=auto;html=1;entryX=0.5;entryY=0;entryDx=0;entryDy=0;" edge="1" parent="1" source="nvKz9CpnVOOsvy4gnu52-57" target="nvKz9CpnVOOsvy4gnu52-58">
          <mxGeometry relative="1" as="geometry" />
        </mxCell>
        <mxCell id="nvKz9CpnVOOsvy4gnu52-57" value="z (int) = 999" style="rounded=0;whiteSpace=wrap;html=1;" vertex="1" parent="1">
          <mxGeometry x="400" y="230" width="120" height="40" as="geometry" />
        </mxCell>
        <mxCell id="nvKz9CpnVOOsvy4gnu52-67" style="edgeStyle=orthogonalEdgeStyle;rounded=0;orthogonalLoop=1;jettySize=auto;html=1;entryX=0.5;entryY=0;entryDx=0;entryDy=0;" edge="1" parent="1" source="nvKz9CpnVOOsvy4gnu52-58" target="nvKz9CpnVOOsvy4gnu52-54">
          <mxGeometry relative="1" as="geometry" />
        </mxCell>
        <mxCell id="nvKz9CpnVOOsvy4gnu52-58" value="result (int) = x * y + z" style="rounded=0;whiteSpace=wrap;html=1;" vertex="1" parent="1">
          <mxGeometry x="400" y="290" width="120" height="40" as="geometry" />
        </mxCell>
      </root>
    </mxGraphModel>
  </diagram>
</mxfile>
